<?xml version="1.0" standalone="no"?>
<!DOCTYPE svg PUBLIC "-//W3C//DTD SVG 20010904//EN"
 "http://www.w3.org/TR/2001/REC-SVG-20010904/DTD/svg10.dtd">
<svg version="1.0" xmlns="http://www.w3.org/2000/svg"
 width="4096.000000pt" height="3072.000000pt" viewBox="0 0 4096.000000 3072.000000"
 preserveAspectRatio="xMidYMid meet">

<g transform="translate(0.000000,3072.000000) scale(0.100000,-0.100000)"
fill="#000000" stroke="none">
<path d="M26230 12719 c-292 -109 -1130 -393 -1560 -529 -107 -34 -285 -90
-395 -125 -110 -35 -297 -94 -415 -130 -296 -91 -314 -97 -495 -154 -233 -73
-660 -204 -1145 -352 -234 -72 -459 -141 -500 -154 -245 -77 -637 -171 -1375
-330 -365 -79 -1135 -240 -1395 -291 -124 -25 -228 -48 -231 -52 -4 -4 -3
-889 2 -1967 4 -1078 8 -3462 8 -5297 l1 -3338 3821 0 3822 0 -6 112 c-4 62
-9 2181 -12 4708 -3 2527 -10 5092 -16 5700 -6 608 -8 1360 -4 1673 4 312 6
567 4 566 -2 0 -51 -18 -109 -40z"/>
<path d="M9115 4039 c-209 -4 -879 -7 -1490 -7 -610 1 -1174 -2 -1252 -7
l-143 -8 0 -2008 0 -2009 2322 0 2321 0 -6 1347 c-4 742 -7 1653 -7 2026 l0
678 -682 -3 c-376 -1 -854 -5 -1063 -9z"/>
</g>
</svg>
