<?xml version="1.0" standalone="no"?>
<!DOCTYPE svg PUBLIC "-//W3C//DTD SVG 20010904//EN"
 "http://www.w3.org/TR/2001/REC-SVG-20010904/DTD/svg10.dtd">
<svg version="1.0" xmlns="http://www.w3.org/2000/svg"
 width="2000.000000pt" height="1500.000000pt" viewBox="0 0 2000.000000 1500.000000"
 preserveAspectRatio="xMidYMid meet">

<g transform="translate(0.000000,1500.000000) scale(0.100000,-0.100000)"
fill="#000000" stroke="none">
<path d="M15729 8151 c-17 -13 -23 -29 -23 -56 0 -51 30 -75 95 -75 60 0 89
24 89 74 0 25 -7 40 -26 55 -35 27 -103 28 -135 2z"/>
<path d="M7090 7810 l0 -350 85 0 85 0 0 350 0 350 -85 0 -85 0 0 -350z"/>
<path d="M9141 8032 l4 -129 -26 28 c-48 52 -146 57 -208 11 -66 -48 -102
-180 -81 -300 21 -126 80 -192 172 -192 54 0 80 10 120 47 l26 25 16 -31 c16
-30 18 -31 86 -31 l70 0 0 350 0 350 -91 0 -91 0 3 -128z m-25 -210 c23 -15
34 -53 34 -119 0 -88 -16 -113 -70 -113 -55 0 -75 32 -75 120 0 84 21 120 68
120 17 0 37 -4 43 -8z"/>
<path d="M2644 8097 c-68 -33 -97 -75 -102 -148 -8 -112 26 -158 179 -234 81
-41 89 -48 89 -74 0 -56 -95 -65 -214 -20 -28 10 -54 19 -58 19 -5 0 -8 -34
-8 -76 l0 -75 38 -17 c28 -13 65 -17 152 -17 99 0 121 3 155 22 79 42 115 98
115 179 0 94 -37 137 -180 209 -73 37 -100 58 -100 80 0 2 7 11 16 19 21 21
79 20 153 -3 l60 -19 26 66 c21 52 23 67 13 74 -31 19 -89 31 -183 35 -90 4
-105 2 -151 -20z"/>
<path d="M9720 7792 l0 -332 85 0 85 0 0 103 0 103 79 11 c98 13 147 37 186
92 26 37 30 53 33 119 5 105 -21 155 -99 195 -51 26 -66 28 -212 34 l-157 6 0
-331z m272 161 c11 -10 18 -30 18 -54 0 -46 -36 -79 -86 -79 l-34 0 0 75 0 75
42 0 c24 0 49 -7 60 -17z"/>
<path d="M13721 8107 c-90 -29 -143 -126 -122 -223 15 -67 51 -104 152 -154
46 -23 92 -49 102 -58 24 -22 21 -49 -8 -68 -31 -20 -107 -14 -193 16 -31 11
-58 20 -59 20 -2 0 -3 -34 -3 -76 l0 -75 38 -17 c28 -13 65 -17 152 -17 99 0
121 3 155 22 102 54 141 160 96 259 -22 47 -55 74 -165 129 -87 44 -107 65
-90 93 20 31 121 24 210 -14 6 -3 14 3 16 13 3 10 15 41 26 70 l21 52 -65 21
c-73 22 -204 26 -263 7z"/>
<path d="M3149 8015 c-16 -39 -33 -62 -61 -80 -33 -22 -38 -30 -38 -65 0 -38
2 -40 30 -40 l30 0 0 -132 c0 -154 16 -204 74 -232 40 -19 142 -21 197 -4 l39
11 0 62 0 62 -62 -1 -63 -1 -3 118 -3 117 61 0 60 0 0 70 0 70 -60 0 -60 0 0
50 0 50 -59 0 -59 0 -23 -55z"/>
<path d="M5121 8016 c-15 -38 -34 -62 -62 -81 -34 -24 -39 -33 -39 -66 0 -36
2 -39 29 -39 l29 0 4 -137 c4 -154 13 -184 67 -220 27 -18 48 -23 99 -23 35 0
82 5 103 12 l39 11 0 63 0 63 -50 -6 c-75 -9 -80 -1 -80 128 l0 109 60 0 60 0
0 70 0 70 -60 0 -60 0 0 50 0 50 -58 0 -58 0 -23 -54z"/>
<path d="M3778 7968 c-20 -5 -52 -25 -70 -44 -18 -18 -36 -34 -39 -34 -3 0
-11 18 -18 40 l-12 40 -64 0 -65 0 0 -255 0 -255 85 0 85 0 0 123 c0 67 5 139
11 159 12 47 49 68 117 68 l49 0 6 77 c3 43 5 78 4 79 -12 8 -60 9 -89 2z"/>
<path d="M4739 7970 c-63 -11 -101 -32 -142 -80 -46 -54 -61 -111 -55 -210 9
-150 81 -220 233 -228 68 -4 89 -1 133 18 l52 22 0 69 c0 38 -2 69 -4 69 -2 0
-23 -9 -47 -20 -57 -25 -129 -26 -160 -1 -19 16 -24 30 -27 87 -3 79 10 112
52 132 27 13 71 8 130 -14 12 -5 21 5 34 37 37 86 37 85 -10 102 -55 20 -131
27 -189 17z"/>
<path d="M6366 7965 c-21 -7 -53 -27 -70 -44 -18 -17 -34 -31 -37 -31 -3 0
-11 18 -18 40 l-12 40 -64 0 -65 0 0 -255 0 -255 90 0 90 0 0 148 c1 100 5
152 13 163 20 27 53 39 105 39 l49 0 7 77 c3 42 5 77 4 78 -15 11 -61 11 -92
0z"/>
<path d="M6674 7970 c-66 -9 -138 -35 -132 -48 1 -4 12 -29 23 -55 11 -26 25
-47 31 -47 6 0 31 7 54 15 79 28 140 13 140 -34 0 -15 -12 -19 -86 -24 -152
-11 -214 -59 -214 -167 0 -104 55 -160 158 -160 60 0 108 17 136 49 25 28 31
27 46 -9 12 -29 15 -30 77 -30 l65 0 -4 198 c-3 185 -4 199 -26 234 -41 67
-141 96 -268 78z m116 -324 c0 -25 -7 -40 -26 -55 -48 -38 -94 -22 -94 30 0
36 33 59 82 59 37 0 38 -1 38 -34z"/>
<path d="M7814 7970 c-66 -9 -138 -35 -132 -47 1 -5 11 -29 22 -56 21 -52 23
-53 81 -32 79 28 145 13 145 -34 0 -15 -12 -19 -86 -24 -152 -11 -214 -59
-214 -167 0 -104 55 -160 158 -160 60 0 108 17 136 49 25 28 31 27 46 -9 12
-29 15 -30 77 -30 l65 0 -4 198 c-3 185 -4 199 -26 234 -41 67 -141 96 -268
78z m116 -324 c0 -25 -7 -40 -26 -55 -48 -38 -94 -22 -94 30 0 36 33 59 82 59
37 0 38 -1 38 -34z"/>
<path d="M8515 7974 c-11 -3 -30 -7 -42 -10 -13 -2 -38 -18 -57 -34 l-34 -31
-12 36 -12 35 -64 0 -64 0 0 -255 0 -255 84 0 84 0 4 153 c5 166 14 199 58
217 35 14 67 0 80 -36 6 -14 10 -95 10 -180 l0 -154 90 0 90 0 0 165 c0 229
-17 293 -88 329 -31 16 -98 26 -127 20z"/>
<path d="M10562 7970 c-33 -8 -66 -30 -90 -62 -20 -27 -28 -22 -41 22 l-12 40
-64 0 -65 0 0 -255 0 -255 85 0 85 0 0 123 c0 67 5 139 11 159 12 47 49 68
117 68 l49 0 6 77 c3 43 5 78 4 79 -11 8 -59 10 -85 4z"/>
<path d="M10873 7970 c-54 -11 -92 -31 -124 -67 -51 -54 -63 -91 -64 -188 0
-83 3 -95 31 -145 43 -76 100 -111 194 -118 96 -7 154 11 207 64 120 121 87
363 -59 432 -52 24 -128 33 -185 22z m113 -151 c16 -17 19 -37 19 -109 0 -106
-16 -133 -74 -128 -30 2 -39 9 -54 38 -25 48 -20 169 7 199 25 28 77 28 102 0z"/>
<path d="M11490 7973 c-99 -17 -154 -53 -193 -127 -18 -34 -22 -58 -22 -136 0
-83 3 -102 26 -145 38 -75 96 -107 203 -113 69 -4 90 -1 134 18 l52 22 0 69
c0 38 -2 69 -4 69 -2 0 -23 -9 -47 -20 -43 -19 -112 -26 -144 -14 -45 18 -61
142 -26 200 25 41 60 49 128 29 30 -9 56 -15 57 -13 3 4 46 119 46 123 0 2
-19 10 -42 19 -47 16 -129 26 -168 19z"/>
<path d="M11953 7970 c-121 -25 -182 -109 -183 -250 0 -108 14 -147 70 -202
38 -36 60 -49 103 -58 65 -15 210 -9 250 10 25 12 27 17 27 75 l0 63 -42 -16
c-24 -8 -73 -15 -109 -16 -71 -1 -102 15 -119 59 -7 19 -2 20 149 25 l156 5 0
76 c-1 108 -30 164 -106 201 -61 30 -134 41 -196 28z m94 -120 c30 -11 58 -53
48 -71 -4 -5 -37 -9 -76 -9 -56 0 -69 3 -69 16 0 25 20 54 43 64 12 5 22 9 23
9 1 1 15 -4 31 -9z"/>
<path d="M12499 7970 c-109 -18 -162 -82 -145 -175 10 -53 53 -95 136 -133 90
-41 101 -49 93 -68 -7 -19 -104 -19 -169 1 -27 8 -53 15 -57 15 -4 0 -7 -30
-5 -67 l3 -67 40 -12 c22 -7 81 -13 130 -13 75 -1 98 3 135 22 66 33 93 78 88
148 -6 82 -25 104 -134 155 -94 44 -116 68 -71 79 20 5 96 -11 139 -30 14 -6
22 2 38 40 11 26 20 53 20 61 0 28 -159 57 -241 44z"/>
<path d="M12988 7969 c-53 -8 -107 -37 -125 -67 -19 -32 -26 -89 -14 -125 16
-47 49 -76 144 -122 101 -49 107 -69 24 -73 -32 -2 -82 4 -112 12 -29 9 -56
16 -59 16 -3 0 -6 -29 -6 -65 0 -62 1 -66 28 -77 41 -17 206 -22 255 -8 80 22
117 70 117 150 0 91 -33 128 -164 181 -127 51 -57 90 77 43 l38 -14 24 53 c12
28 21 55 18 59 -6 11 -100 35 -153 41 -25 2 -66 1 -92 -4z"/>
<path d="M14306 7969 c-67 -11 -124 -53 -155 -114 -23 -43 -26 -62 -26 -145 0
-127 31 -186 120 -233 56 -29 200 -36 279 -13 l56 17 0 64 c0 36 -2 65 -4 65
-2 0 -19 -6 -37 -14 -88 -36 -192 -28 -224 17 -31 45 -25 47 140 47 l155 0 0
69 c0 77 -12 122 -46 167 -45 61 -153 91 -258 73z m127 -141 c9 -11 17 -29 17
-39 0 -17 -8 -19 -75 -19 -41 0 -75 4 -75 10 0 24 25 60 49 69 33 12 61 5 84
-21z"/>
<path d="M14976 7965 c-21 -7 -54 -28 -72 -46 l-33 -32 -11 29 c-6 16 -13 35
-15 42 -3 8 -26 12 -70 12 l-65 0 0 -255 0 -255 90 0 90 0 0 148 c0 146 0 149
25 172 19 18 40 25 84 28 l59 4 7 75 c4 41 5 76 3 77 -14 12 -59 12 -92 1z"/>
<path d="M16186 7970 c-124 -22 -197 -114 -198 -251 0 -42 6 -95 13 -120 18
-60 81 -121 142 -138 60 -17 181 -10 225 13 31 16 32 18 32 87 l0 70 -32 -17
c-17 -9 -57 -19 -89 -21 -51 -5 -60 -3 -82 19 -51 51 -42 169 15 211 26 19 31
19 85 7 32 -8 62 -14 66 -15 5 0 20 27 33 59 27 66 25 69 -36 85 -59 15 -123
19 -174 11z"/>
<path d="M16673 7970 c-57 -12 -95 -33 -130 -74 -43 -48 -58 -98 -57 -191 2
-171 91 -255 273 -255 43 0 101 7 129 15 l52 16 0 64 0 64 -40 -14 c-107 -38
-198 -27 -225 25 -8 16 -15 31 -15 35 0 3 70 5 155 5 l155 0 0 78 c-1 115 -37
181 -120 215 -47 20 -126 27 -177 17z m120 -138 c9 -8 17 -26 17 -39 0 -22 -3
-23 -70 -23 -67 0 -70 1 -70 23 0 57 75 81 123 39z"/>
<path d="M17220 7970 c-97 -13 -142 -56 -147 -138 -6 -86 15 -113 133 -168 72
-34 95 -49 92 -62 -4 -24 -93 -28 -163 -8 -29 9 -56 16 -59 16 -3 0 -6 -31 -6
-69 l0 -69 50 -11 c65 -14 184 -14 235 0 109 30 150 164 78 250 -16 19 -61 47
-110 70 -84 39 -105 63 -60 74 20 5 96 -11 138 -29 13 -6 21 5 39 49 12 31 21
57 19 59 -2 2 -26 10 -54 19 -64 19 -128 26 -185 17z"/>
<path d="M3940 7778 c0 -181 1 -197 23 -238 29 -57 64 -82 126 -88 72 -7 117
5 157 40 l35 31 12 -32 c11 -31 12 -31 79 -31 l68 0 -2 253 -3 252 -87 3 -88
3 0 -149 c0 -194 -14 -232 -83 -232 -46 0 -52 21 -57 204 l-5 171 -87 3 -88 3
0 -193z"/>
<path d="M5482 7768 c3 -182 5 -207 23 -237 29 -49 67 -73 124 -79 72 -7 117
5 157 40 l35 31 12 -32 c11 -31 12 -31 79 -31 l68 0 0 255 0 255 -90 0 -90 0
0 -152 c0 -185 -11 -221 -71 -226 -59 -5 -63 8 -69 202 l-5 171 -88 3 -88 3 3
-203z"/>
<path d="M15093 7948 c4 -13 46 -128 94 -256 l88 -232 90 2 90 3 92 240 c51
132 92 246 93 253 0 9 -24 12 -88 12 l-89 0 -46 -157 c-26 -87 -47 -164 -47
-172 0 -31 -11 1 -50 140 -58 207 -44 189 -146 189 -85 0 -86 0 -81 -22z"/>
<path d="M15710 7715 l0 -255 85 0 85 0 0 255 0 255 -85 0 -85 0 0 -255z"/>
<path d="M7710 7260 c-13 -8 -11 -11 8 -16 22 -6 22 -9 22 -150 0 -137 -1
-144 -20 -144 -11 0 -20 -4 -20 -10 0 -5 25 -10 55 -10 30 0 55 5 55 10 0 6
-9 10 -20 10 -19 0 -20 7 -20 160 0 159 0 160 -22 160 -13 0 -30 -5 -38 -10z"/>
<path d="M2566 7229 c-20 -15 -26 -29 -26 -58 0 -53 22 -78 86 -97 69 -20 95
-53 73 -92 -29 -53 -125 -46 -136 9 -9 48 -33 36 -33 -16 0 -33 4 -45 15 -45
8 0 15 5 15 10 0 6 11 3 25 -6 60 -39 155 9 155 79 0 48 -24 74 -85 93 -70 23
-92 45 -79 82 19 54 107 55 127 2 17 -46 37 -38 37 15 0 32 -4 45 -14 45 -8 0
-16 -6 -19 -12 -4 -10 -7 -10 -18 0 -21 20 -93 15 -123 -9z"/>
<path d="M2835 7200 c-4 -16 -15 -32 -26 -35 -23 -7 -26 -25 -4 -25 12 0 15
-17 15 -94 0 -117 13 -137 78 -120 32 9 27 24 -8 24 l-30 0 0 95 0 95 30 0
c17 0 30 5 30 10 0 6 -13 10 -30 10 -28 0 -30 3 -30 35 0 43 -16 46 -25 5z"/>
<path d="M4335 7200 c-4 -16 -15 -32 -26 -35 -23 -7 -26 -25 -4 -25 12 0 15
-16 15 -82 0 -127 12 -148 74 -132 35 9 33 24 -4 24 l-30 0 0 95 0 95 30 0
c17 0 30 5 30 10 0 6 -13 10 -30 10 -28 0 -30 3 -30 35 0 43 -16 46 -25 5z"/>
<path d="M5234 7200 c-4 -16 -15 -32 -25 -35 -23 -7 -25 -25 -4 -25 12 0 15
-17 15 -94 0 -117 13 -137 78 -120 32 9 27 24 -8 24 l-30 0 0 95 0 95 30 0
c17 0 30 5 30 10 0 6 -13 10 -30 10 -28 0 -30 3 -30 35 0 43 -18 46 -26 5z"/>
<path d="M3883 7171 c-4 -17 -9 -19 -25 -10 -26 14 -85 5 -109 -17 -26 -23
-25 -85 0 -108 19 -17 19 -18 -1 -38 -17 -17 -18 -22 -6 -40 13 -19 12 -24 -8
-43 -48 -48 4 -91 101 -83 67 6 95 28 95 74 0 42 -23 55 -105 63 -44 4 -60 10
-60 21 0 10 16 17 50 22 36 5 56 14 73 34 23 26 24 37 7 90 -5 17 -2 21 17 20
31 -1 31 28 0 32 -17 3 -25 -2 -29 -17z m-29 -37 c22 -22 20 -67 -4 -89 -16
-15 -26 -17 -48 -9 -22 8 -28 16 -30 47 -2 21 2 45 9 53 15 19 54 18 73 -2z
m34 -216 c35 -35 -3 -68 -77 -68 -40 0 -61 14 -61 40 0 28 23 40 75 40 28 0
56 -5 63 -12z"/>
<path d="M2988 7163 c-31 -5 -37 -18 -13 -27 12 -4 15 -25 15 -96 0 -73 -3
-90 -15 -90 -8 0 -15 -4 -15 -10 0 -5 25 -10 55 -10 30 0 55 5 55 10 0 6 -9
10 -21 10 -19 0 -21 5 -19 88 3 114 1 132 -7 131 -5 -1 -20 -4 -35 -6z"/>
<path d="M3058 7159 c-25 -14 -23 -33 1 -19 26 13 31 13 25 -3 -6 -17 21 -41
36 -32 16 10 12 52 -6 59 -22 8 -36 7 -56 -5z"/>
<path d="M3213 7150 c-57 -34 -69 -135 -22 -194 27 -34 81 -44 126 -22 80 38
83 180 4 220 -40 21 -69 20 -108 -4z m98 -19 c21 -17 24 -28 24 -86 0 -58 -3
-69 -24 -86 -13 -10 -31 -19 -41 -19 -10 0 -28 9 -41 19 -21 17 -24 28 -24 86
0 58 3 69 24 86 13 10 31 19 41 19 10 0 28 -9 41 -19z"/>
<path d="M3460 7163 c-45 -15 -45 -15 -22 -24 21 -8 22 -14 22 -99 0 -72 -3
-90 -14 -90 -8 0 -18 -4 -21 -10 -4 -6 15 -10 49 -10 31 0 56 5 56 10 0 6 -9
10 -20 10 -18 0 -20 7 -20 73 0 90 16 120 63 115 42 -4 57 -35 57 -120 0 -61
-2 -68 -20 -68 -11 0 -20 -4 -20 -10 0 -5 25 -10 55 -10 30 0 55 5 55 10 0 6
-9 10 -20 10 -18 0 -20 7 -20 86 0 47 -5 94 -10 104 -17 31 -76 37 -111 11
-29 -21 -29 -21 -29 -1 0 20 -4 22 -30 13z"/>
<path d="M4107 7150 c-51 -40 -26 -102 49 -121 58 -15 77 -45 44 -71 -12 -10
-29 -18 -37 -18 -26 0 -53 20 -53 40 0 11 -7 20 -15 20 -10 0 -15 -11 -15 -35
0 -29 3 -35 23 -35 12 0 38 -2 57 -6 92 -15 127 106 37 131 -61 17 -77 28 -77
51 0 49 84 56 96 8 9 -36 24 -29 24 10 0 26 -4 35 -17 35 -10 1 -34 3 -53 7
-27 4 -42 1 -63 -16z"/>
<path d="M4488 7163 c-29 -4 -39 -23 -13 -23 12 0 15 -17 15 -95 0 -78 -3 -95
-15 -95 -8 0 -15 -4 -15 -10 0 -5 25 -10 55 -10 30 0 55 5 55 10 0 6 -9 10
-21 10 -19 0 -21 5 -19 88 3 114 1 132 -7 131 -5 -1 -20 -4 -35 -6z"/>
<path d="M4558 7159 c-25 -14 -23 -33 1 -19 26 14 34 13 28 -4 -5 -13 10 -36
25 -36 4 0 12 9 18 19 19 37 -31 64 -72 40z"/>
<path d="M4705 7163 c-44 -9 -51 -15 -27 -24 20 -8 22 -14 22 -94 0 -72 3 -88
20 -105 23 -23 76 -26 103 -6 26 20 21 25 -18 19 -57 -9 -65 6 -65 113 0 51
-3 95 -7 97 -5 2 -17 2 -28 0z"/>
<path d="M4850 7163 c-45 -15 -45 -15 -22 -24 22 -8 23 -13 21 -109 -1 -55 0
-102 2 -104 7 -6 69 6 69 14 0 4 -9 10 -20 13 -18 5 -20 14 -20 111 0 58 -3
106 -7 105 -5 0 -15 -3 -23 -6z"/>
<path d="M5024 7160 c-39 -16 -64 -59 -64 -111 0 -84 38 -129 108 -129 33 0
82 34 82 56 0 12 -5 11 -26 -5 -62 -49 -124 -10 -124 78 0 42 5 57 25 76 34
35 102 33 73 -2 -9 -11 -8 -18 5 -31 16 -15 18 -15 33 0 45 44 -42 97 -112 68z"/>
<path d="M5378 7163 c-28 -4 -40 -23 -14 -23 10 0 15 -23 18 -91 4 -81 7 -94
27 -110 28 -23 69 -24 99 -3 20 14 22 14 22 -2 0 -12 6 -15 23 -10 12 3 28 6
35 6 6 0 12 5 12 10 0 6 -7 10 -15 10 -12 0 -15 19 -15 110 l0 110 -32 -7
c-42 -8 -47 -12 -25 -24 14 -8 17 -24 17 -87 0 -88 -8 -102 -57 -102 -44 0
-53 21 -53 129 0 50 -3 90 -7 90 -5 -1 -20 -4 -35 -6z"/>
<path d="M5680 7163 c-45 -15 -45 -15 -22 -24 21 -8 22 -14 22 -99 0 -72 -3
-90 -14 -90 -8 0 -18 -4 -21 -10 -4 -6 17 -10 54 -10 34 0 61 4 61 10 0 6 -9
10 -20 10 -18 0 -20 7 -20 83 0 69 3 87 18 100 25 23 39 21 38 -5 -1 -28 37
-32 42 -5 9 45 -46 62 -85 25 l-23 -21 0 21 c0 22 -4 24 -30 15z"/>
<path d="M5884 7136 c-30 -30 -34 -40 -34 -85 0 -27 5 -62 12 -76 14 -31 56
-55 96 -55 33 0 82 34 82 56 0 12 -5 11 -26 -5 -53 -42 -124 -12 -124 51 l0
28 80 0 c73 0 80 2 80 20 0 33 -23 71 -51 86 -45 23 -78 17 -115 -20z m106 -6
c11 -11 20 -29 20 -40 0 -18 -7 -20 -60 -20 -53 0 -60 2 -60 20 0 11 9 29 20
40 11 11 29 20 40 20 11 0 29 -9 40 -20z"/>
<path d="M6127 7150 c-51 -40 -26 -102 49 -121 58 -15 77 -45 44 -71 -12 -10
-29 -18 -37 -18 -26 0 -53 20 -53 40 0 11 -7 20 -15 20 -10 0 -15 -11 -15 -35
0 -29 3 -35 23 -35 12 0 38 -2 57 -6 92 -15 127 106 37 131 -61 17 -77 28 -77
51 0 49 84 56 96 8 9 -36 24 -29 24 10 0 26 -4 35 -17 35 -10 1 -34 3 -53 7
-27 4 -42 1 -63 -16z"/>
<path d="M6583 7160 c-48 -20 -42 -101 9 -119 63 -23 83 -37 86 -59 7 -50 -92
-52 -105 -2 -8 32 -23 23 -23 -14 0 -28 4 -34 23 -35 12 0 39 -3 59 -7 31 -5
41 -2 62 20 46 45 24 98 -47 117 -23 6 -48 16 -54 21 -22 18 -15 48 14 59 35
13 73 -3 73 -31 0 -11 7 -20 15 -20 10 0 15 11 15 35 0 29 -3 35 -22 35 -13
-1 -36 2 -53 4 -16 3 -40 1 -52 -4z"/>
<path d="M6818 7153 c-34 -21 -53 -66 -51 -120 2 -50 24 -87 64 -103 49 -21
129 8 129 47 0 18 -7 16 -30 -7 -11 -11 -33 -20 -50 -20 -17 0 -39 9 -50 20
-11 11 -20 33 -20 50 l0 30 81 0 82 0 -7 33 c-8 41 -57 87 -94 87 -15 0 -39
-8 -54 -17z m92 -23 c11 -11 20 -29 20 -40 0 -18 -7 -20 -60 -20 -53 0 -60 2
-60 20 0 11 9 29 20 40 11 11 29 20 40 20 11 0 29 -9 40 -20z"/>
<path d="M7057 7154 c-34 -18 -35 -59 -2 -59 15 0 20 7 20 25 0 18 6 26 22 28
31 5 65 -33 61 -66 -3 -25 -8 -27 -54 -32 -63 -7 -84 -23 -84 -66 0 -57 77
-87 119 -45 18 18 18 18 30 -1 7 -12 21 -18 33 -16 24 3 37 28 15 28 -11 0
-16 20 -19 91 -4 81 -7 94 -27 110 -28 23 -76 24 -114 3z m101 -150 c4 -39
-16 -56 -60 -52 -30 3 -33 6 -33 38 0 28 5 35 25 41 47 14 65 6 68 -27z"/>
<path d="M7298 7163 c-29 -4 -39 -23 -13 -23 12 0 15 -17 15 -95 0 -78 -3 -95
-15 -95 -8 0 -15 -4 -15 -10 0 -5 25 -10 56 -10 34 0 53 4 49 10 -3 6 -13 10
-21 10 -13 0 -15 15 -14 88 3 114 1 132 -7 131 -5 -1 -20 -4 -35 -6z"/>
<path d="M7368 7159 c-29 -16 -21 -25 19 -21 52 6 63 -14 63 -110 0 -63 -3
-78 -15 -78 -8 0 -15 -4 -15 -10 0 -5 23 -10 50 -10 28 0 50 5 50 10 0 6 -7
10 -15 10 -12 0 -15 16 -15 83 0 91 8 107 51 107 43 0 59 -32 59 -117 0 -57
-3 -73 -14 -73 -8 0 -18 -4 -21 -10 -4 -6 15 -10 49 -10 31 0 56 5 56 10 0 6
-7 10 -15 10 -12 0 -15 14 -15 63 0 78 -15 134 -40 147 -29 15 -65 12 -91 -9
-23 -19 -24 -19 -48 0 -26 21 -66 24 -93 8z"/>
<path d="M7884 7136 c-59 -59 -45 -177 26 -206 51 -21 130 8 130 47 0 11 -7 9
-26 -6 -53 -42 -124 -14 -124 49 l0 30 80 0 c87 0 89 1 69 59 -23 66 -102 80
-155 27z m106 -6 c11 -11 20 -29 20 -40 0 -18 -7 -20 -60 -20 -53 0 -60 2 -60
20 0 11 9 29 20 40 11 11 29 20 40 20 11 0 29 -9 40 -20z"/>
<path d="M8127 7150 c-32 -25 -36 -69 -8 -94 10 -9 38 -22 62 -29 36 -11 45
-17 47 -39 6 -53 -79 -64 -98 -13 -14 36 -30 31 -30 -10 0 -29 3 -35 23 -35
12 0 38 -2 57 -6 27 -4 42 -1 63 16 54 43 24 109 -58 124 -55 11 -70 68 -21
80 35 9 66 -4 72 -30 9 -36 24 -29 24 10 0 26 -4 35 -17 35 -10 1 -34 3 -53 7
-27 4 -42 1 -63 -16z"/>
<path d="M8346 7146 c-47 -46 -24 -99 50 -117 69 -18 84 -71 24 -84 -36 -8
-70 9 -70 35 0 11 -7 20 -15 20 -10 0 -15 -11 -15 -35 0 -30 3 -35 23 -34 12
0 34 -3 50 -7 37 -9 86 13 93 42 12 47 -3 71 -53 90 -60 22 -73 32 -73 55 0
45 85 47 96 2 9 -33 28 -24 32 15 3 28 0 32 -20 32 -13 0 -40 3 -60 6 -31 5
-41 2 -62 -20z"/>
<path d="M8680 7163 c-45 -15 -45 -15 -22 -24 21 -8 22 -13 22 -145 0 -127 -1
-136 -20 -141 -11 -3 -17 -9 -14 -14 7 -12 114 -11 114 1 0 6 -9 10 -20 10
-17 0 -20 7 -20 51 0 50 0 50 22 35 36 -25 76 -20 110 14 29 29 30 34 26 100
-2 49 -9 74 -22 89 -26 29 -80 37 -110 17 -21 -13 -25 -13 -30 -1 -6 16 -11
17 -36 8z m142 -40 c24 -22 26 -128 1 -155 -18 -20 -73 -24 -91 -6 -7 7 -12
41 -12 83 0 42 5 76 12 83 17 17 68 15 90 -5z"/>
<path d="M8958 7163 c-29 -4 -39 -23 -13 -23 12 0 15 -17 15 -95 0 -78 -3 -95
-15 -95 -8 0 -15 -4 -15 -10 0 -6 27 -10 61 -10 37 0 58 4 54 10 -3 6 -15 10
-26 10 -19 0 -21 6 -19 88 3 114 1 132 -7 131 -5 -1 -20 -4 -35 -6z"/>
<path d="M9028 7159 c-25 -14 -23 -33 1 -19 27 14 31 13 31 -9 0 -26 17 -36
35 -21 19 16 19 25 -1 44 -18 18 -41 20 -66 5z"/>
<path d="M9192 7157 c-38 -22 -56 -58 -56 -113 0 -60 20 -96 64 -114 74 -30
150 28 150 114 0 93 -84 154 -158 113z m93 -32 c21 -20 25 -34 25 -80 0 -46
-4 -60 -25 -80 -28 -29 -51 -31 -83 -9 -19 13 -22 24 -22 83 0 67 10 93 40
104 29 10 41 7 65 -18z"/>
<path d="M9465 7161 c-40 -17 -59 -50 -63 -111 -4 -57 -3 -61 31 -95 27 -27
43 -35 70 -35 37 0 87 32 87 56 0 12 -5 11 -26 -5 -62 -49 -124 -9 -124 81 0
39 5 54 25 73 34 35 102 33 73 -2 -9 -11 -8 -18 5 -31 16 -15 18 -15 33 0 44
44 -42 97 -111 69z"/>
<path d="M9683 7150 c-57 -34 -69 -135 -22 -194 37 -47 127 -44 157 5 19 30 6
36 -21 11 -45 -42 -116 -16 -120 43 l-2 30 83 3 82 3 -6 27 c-19 82 -84 113
-151 72z m85 -17 c11 -10 23 -28 27 -40 6 -22 4 -23 -59 -23 -75 0 -84 13 -41
55 29 30 46 31 73 8z"/>
<path d="M9913 7155 c-17 -12 -23 -26 -23 -55 0 -43 19 -61 75 -75 38 -9 55
-23 55 -46 0 -47 -94 -49 -106 -3 -9 33 -28 25 -32 -14 -3 -28 -1 -31 25 -31
15 0 44 -3 63 -6 47 -9 83 19 83 63 0 41 -17 60 -67 73 -22 6 -47 16 -53 21
-22 18 -15 48 14 59 35 13 73 -3 73 -31 0 -11 7 -20 15 -20 10 0 15 11 15 35
0 29 -3 35 -22 35 -13 0 -39 2 -58 5 -24 4 -42 1 -57 -10z"/>
<path d="M10143 7160 c-47 -19 -42 -100 7 -119 16 -6 44 -16 60 -22 22 -8 30
-18 30 -35 0 -50 -80 -56 -102 -9 -16 35 -28 31 -28 -9 0 -28 4 -34 23 -35 12
0 39 -3 59 -7 31 -5 41 -2 62 20 47 46 24 99 -50 117 -66 17 -84 69 -29 83 32
8 55 -2 66 -30 13 -35 29 -29 29 11 0 29 -3 35 -22 35 -13 -1 -36 2 -53 4 -16
3 -40 1 -52 -4z"/>
<path d="M10364 7136 c-59 -59 -45 -177 26 -206 51 -21 130 8 130 47 0 11 -7
9 -26 -6 -53 -42 -124 -14 -124 49 l0 30 80 0 c89 0 93 4 65 65 -31 63 -99 73
-151 21z m106 -6 c11 -11 20 -29 20 -40 0 -18 -7 -20 -60 -20 -53 0 -60 2 -60
20 0 11 9 29 20 40 11 11 29 20 40 20 11 0 29 -9 40 -20z"/>
<path d="M10615 7158 c-27 -15 -35 -28 -35 -59 0 -33 26 -56 81 -72 36 -11 45
-17 47 -39 6 -53 -79 -64 -98 -13 -14 36 -30 31 -30 -10 0 -29 3 -35 23 -35
12 0 38 -2 57 -6 27 -4 42 -1 63 16 54 43 24 109 -58 124 -55 11 -71 67 -22
80 35 9 67 -4 73 -30 9 -36 24 -29 24 12 0 30 -3 34 -19 29 -11 -3 -22 -1 -26
5 -8 13 -55 12 -80 -2z"/>
<path d="M6332 6968 c-16 -16 -15 -35 3 -46 14 -7 13 -12 -5 -35 -26 -33 -12
-36 17 -4 28 30 37 65 23 82 -15 18 -22 19 -38 3z"/>
<path d="M10813 6973 c-18 -7 -16 -42 3 -50 8 -3 23 1 31 10 13 13 14 19 3 31
-13 17 -17 18 -37 9z"/>
</g>
</svg>
